<svg xmlns="http://www.w3.org/2000/svg" enable-background="new 0 0 48 48" viewBox="0 0 48 48"><path d="M16,45h16c1.65,0,3-1.35,3-3V17c0-0.55-0.45-1-1-1v-2c0-1.1-0.9-2-2-2h-0.12c-0.4-1.95-1.95-3.5-3.88-3.9V7
	c0-2.21-1.79-4-4-4c-2.21,0-4,1.79-4,4v1.1c-1.93,0.4-3.48,1.95-3.88,3.9H16c-1.1,0-2,0.9-2,2v2c-0.55,0-1,0.45-1,1v25
	C13,43.65,14.35,45,16,45z M21,10c0.55,0,1-0.45,1-1V7c0-1.1,0.9-2,2-2c1.1,0,2,0.9,2,2v2c0,0.55,0.45,1,1,1
	c1.28,0,2.41,0.83,2.83,2H18.17C18.59,10.83,19.72,10,21,10z M16,14h16v2H16V14z M15,18h18v24c0,0.55-0.45,1-1,1H16
	c-0.55,0-1-0.45-1-1V18z"/><path d="M16.5 21.5h2c.55 0 1-.45 1-1s-.45-1-1-1h-2c-.55 0-1 .45-1 1S15.95 21.5 16.5 21.5zM16.5 25.5h2c.55 0 1-.45 1-1s-.45-1-1-1h-2c-.55 0-1 .45-1 1S15.95 25.5 16.5 25.5zM16.5 29.5h2c.55 0 1-.45 1-1s-.45-1-1-1h-2c-.55 0-1 .45-1 1S15.95 29.5 16.5 29.5zM16.5 33.5h2c.55 0 1-.45 1-1s-.45-1-1-1h-2c-.55 0-1 .45-1 1S15.95 33.5 16.5 33.5zM16.5 37.5h2c.55 0 1-.45 1-1s-.45-1-1-1h-2c-.55 0-1 .45-1 1S15.95 37.5 16.5 37.5zM16.5 41.5h2c.55 0 1-.45 1-1s-.45-1-1-1h-2c-.55 0-1 .45-1 1S15.95 41.5 16.5 41.5z"/></svg>